<?xml version="1.0" encoding="UTF-8"?>
<svg id="Layer_1" data-name="Layer 1" xmlns="http://www.w3.org/2000/svg" viewBox="0 0 49.14 30.7">
  <defs>
    <style>
      .cls-1 {
        fill: #231f20;
      }

      .cls-2 {
        fill: #ed1c24;
      }

      .cls-3 {
        fill: none;
        stroke: #fd0;
        stroke-miterlimit: 10;
        stroke-width: 2px;
      }
    </style>
  </defs>
  <path class="cls-3" d="M4.85,10.15v19.76"/>
  <line class="cls-3" x1="2.03" y1="12.32" x2="16.29" y2=".88"/>
  <path class="cls-3" d="M16.11.93l30.75,12.2L16.11.93Z"/>
  <path class="cls-3" d="M44.21,12.04c-.02,5.95-.03,11.91-.05,17.86"/>
  <g>
    <path class="cls-1" d="M12.2,17.74c-.63,0-.95,0-1.58,0-.09-3.27-1.73-5.66.58-7.82-2.74,2.11-1.34,4.49-1.7,7.82-.63,0-.95,0-1.58,0-.43-3.54-2.26-6.1.07-8.45-2.8,2.3-1.22,4.85-1.27,8.45-.64,0-.95,0-1.59,0,.12-8.69,4.37-11.06,11.08-16.48.4.16.61.24,1.01.41-3.49,3.46-5.03,5.09-8.26,8.51,4.4-3.28,6.37-4.8,10.1-7.77.4.16.61.24,1.01.41-4.85,4.85-8.08,7.12-7.88,14.93Z"/>
    <path class="cls-1" d="M15.28,17.75c-.35,0-.69-.2-.99-.54-.29-.33-.59-.83-.84-1.52-.26-.7-.44-1.5-.58-2.38-.14-.85-.66-2,.06-2.7,3.38-3.24,4.74-4.63,7.69-7.58.39.16.59.24.98.4-2.68,2.84-3.88,4.16-7.08,7.34-.51.51-.19,1.28.02,1.86.2.55.44.83.73.85.14.01.27-.06.39-.2.12-.14.23-.33.32-.57.09-.24.17-.53.21-.85.05-.35.17-.67.39-.91,2.97-3.11,3.95-4.33,6.27-7.02.39.16.59.24.98.4-2.06,2.58-2.88,3.72-5.68,6.79-.55.61-.36,1.59-.5,2.44-.13.85-.33,1.57-.54,2.13-.23.61-.51,1.1-.82,1.46-.31.36-.65.56-1.01.59-.01,0-.02,0-.03,0Z"/>
    <path class="cls-1" d="M20.69,18.09c-.22,0-.45-.07-.65-.21-.21-.15-.42-.41-.62-.71-.33-.56-.6-1.28-.8-2.18-.19-.9-.29-1.87-.3-2.91.63.06.95.1,1.58.17,0,.46.05.83.13,1.08.08.27.15.45.22.55.11.19.24.3.37.33.12.02.25-.03.38-.15.09-.09.16-.2.21-.33.06-.15.09-.29.12-.4.02-.09.03-.22.04-.36,0-.04,0-.14,0-.29,0-.15,0-.25-.01-.3-.02-.17-.03-.31-.05-.39-.03-.1,0-.21.05-.34.02-.08.02-.19-.01-.27-.03-.08-.08-.15-.09-.17-.05-.07-.07-.11-.12-.18-.1-.15-.17-.27-.22-.36-.07-.13-.1-.3-.1-.51.01-.31.11-.64.28-.99.19-.38.27-.68.48-1.04.25-.41.52-.78.79-1.11.3-.36.63-.71.97-1.03.31-.29.62-.53.9-.72.27-.18.52-.33.75-.41.22-.07.42-.09.57-.06.17.04.29.14.38.27.09.14.16.32.18.52.02.22.02.46-.02.72-.04.27-.11.55-.22.85-.11.31-.24.61-.41.91-.51-.11-.76-.17-1.27-.29.13-.2.19-.35.17-.44-.02-.09-.05-.16-.08-.2,0,0,0,0,0,0,0,0,0,0,0-.02,0,0,0-.01,0-.02-.01,0-.02,0-.03,0-.03-.03-.07-.04-.12-.03-.1.03-.17.04-.21.06-.08.04-.18.11-.28.21-.14.14-.25.29-.33.44-.08.17-.12.31-.1.41.02.08.06.16.12.23.02.04.08.12.18.22.01.01.03.03.04.04.02.02.04.04.07.07.03.03.05.06.08.08,0,.01.03.04.07.09.04.05.08.1.11.14.2.33.19.81-.07,1.45-.27.65-.84,1.29-.83,2.33,0,1.03-.1,1.96-.33,2.8-.22.83-.55,1.47-.96,1.94-.16.18-.33.33-.49.4-.19.08-.37.11-.5.11Z"/>
    <path class="cls-1" d="M27.32,5.74c.39.16.59.24.98.4-1.43,3.44-3.26,5.46-3.24,11.68-.63,0-.95,0-1.58-.01-.03-6.41,1.98-8.46,3.84-12.06Z"/>
    <path class="cls-1" d="M28.85,17.83c-.44,0-.88-.2-1.29-.56-.4-.34-.8-.9-1.15-1.67-.33-.72-.57-1.59-.75-2.55-.17-.89.35-1.6.92-2.41.56-.81.81-1.31,1.13-1.78.33-.47.68-.88,1.04-1.2.37-.33.71-.54,1.03-.63.31-.09.6-.08.88.03.27.11.53.31.79.59.26.28.52.63.79,1.05-.28.36-.45.55-.83.94-.14-.22-.3-.42-.47-.55-.18-.14-.36-.23-.53-.28s-.36-.04-.56.02c-.2.06-.4.18-.6.36-.18.16-.36.38-.53.64-.15.25-.39.59-.65,1.01-.27.42-.48.81-.61,1.19-.15.42-.08.84.08,1.21.18.41.4.71.62.92.23.21.46.33.69.35.23.02.47-.06.7-.23.23-.16.43-.42.62-.77.45.96.67,1.43,1.12,2.34-.33.65-.72,1.14-1.13,1.46-.42.33-.85.51-1.3.5Z"/>
    <path class="cls-1" d="M33.47,8.45c.23-.07.47-.04.76.08.28.11.6.31.97.56.37.25.75.54,1.17.85.42.32.86.65,1.3,1.01.46.37.94.68.76,1.37-.17.69-.47,1.33-.65,2.05-.16.66-.41,1.26-.74,1.8-.31.52-.68.95-1.09,1.25-.43.31-.88.47-1.34.46s-.9-.18-1.34-.53c-.4-.32-.76-.81-1.09-1.46-.33-.65-.58-1.38-.75-2.19-.19-.88.17-1.57.54-2.3.37-.73.37-1.15.48-1.55.1-.39.25-.71.42-.95.17-.24.36-.39.58-.46ZM33.89,14.64c.21.19.45.32.72.34.27.02.52-.06.72-.21.21-.15.42-.36.59-.65.17-.28.34-.6.54-.93.2-.33.36-.69.48-1.08.12-.39.09-.7-.12-.9-.21-.2-.44-.39-.67-.56-.23-.17-.45-.32-.68-.45-.22-.12-.43-.21-.62-.26-.2-.05-.37-.05-.51,0-.14.05-.26.14-.35.27-.09.13-.15.3-.18.5-.03.18-.15.48-.34.92-.19.43-.31.83-.36,1.16-.06.36.02.74.19,1.07.17.34.38.6.59.8Z"/>
    <path class="cls-1" d="M44.07,18.04c-.68,0-1.03-.01-1.71-.02-.9-2.41.24-4.86-2.05-6.11,1.49,1.12-.19,3.52-.19,6.08-.63,0-.95-.01-1.58-.02,0-4.56.27-6.37-1.86-8.43.43.17.64.26,1.07.43,2.07,1.33,4.07,1.39,4.78,3.82.16-2.32-1.55-2.29-3.41-3.27.39.16.59.24.98.4,3.6,1.52,3.97,3.23,3.97,7.14Z"/>
  </g>
  <g>
    <path class="cls-2" d="M6.41,23.51v4.12c0,.21.06.36.19.43.06.04.1.08.12.13.02.05.02.15.02.32,0,.25,0,.4-.03.45-.02.05-.06.07-.14.07h-1.49c-.08,0-.14-.03-.16-.1-.03-.07-.04-.22-.04-.43,0-.14,0-.24.02-.27.01-.04.05-.08.11-.14.08-.07.13-.14.15-.19.02-.05.03-.13.03-.23v-8.2c0-.12-.01-.21-.03-.27-.02-.06-.07-.13-.15-.2-.05-.05-.08-.16-.08-.33,0-.02,0-.12,0-.3,0-.18.07-.28.16-.28h2.04c.06,0,.1.02.13.06.02.04.04.14.06.3,0,.03,0,.07,0,.12.06.6.09.9.15,1.51,0,.1.01.18.01.24,0,.15-.05.22-.16.22-.14,0-.23-.05-.26-.16-.04-.11-.09-.38-.16-.81-.05-.26-.09-.44-.14-.53-.04-.09-.11-.14-.21-.14-.03,0-.07,0-.14.02v3.88h.17c.09,0,.15-.04.18-.13.03-.08.06-.23.07-.43.02-.23.04-.38.06-.45s.09-.1.22-.1c.09,0,.14.02.16.05.02.04.03.11.03.21v2.46c0,.1,0,.17-.03.2-.02.03-.07.05-.17.05-.11,0-.18-.04-.21-.12-.03-.08-.05-.27-.07-.56-.02-.3-.1-.46-.24-.46h-.17Z"/>
    <path class="cls-2" d="M9.16,19.66c.41,0,.75.38,1.02,1.14.27.76.41,1.9.41,3.4,0,1.62-.14,2.85-.42,3.68-.28.83-.62,1.25-1.04,1.25-.29,0-.54-.19-.75-.57-.21-.38-.37-.89-.49-1.52-.11-.63-.17-1.5-.17-2.6,0-1.57.13-2.76.39-3.57.26-.81.61-1.21,1.03-1.21ZM9.39,21.36c0-.56-.08-.84-.24-.84-.17,0-.25.34-.25,1.03v5.64c0,.68.08,1.03.23,1.03.17,0,.26-.34.26-1.03v-5.83Z"/>
    <path class="cls-2" d="M12.07,21.56c.03-.11.06-.3.09-.57.08-.59.16-.96.24-1.11.08-.15.17-.22.26-.22.13,0,.23.13.29.39.07.26.1.58.1.97,0,.84-.11,1.26-.34,1.26-.11,0-.2-.14-.26-.41-.04-.16-.08-.24-.11-.24-.1,0-.15.23-.15.67v5.43c0,.17.04.3.11.38.07.08.11.2.11.37v.31c0,.11,0,.18-.02.21-.01.03-.05.04-.1.04h-1.23c-.08,0-.13-.08-.13-.25v-.37c0-.13.02-.21.06-.25.07-.08.11-.19.11-.35v-6.84c0-.15-.03-.27-.08-.33-.05-.07-.09-.12-.1-.16,0-.04-.01-.16-.01-.35,0-.16.01-.26.03-.31s.06-.06.12-.06h.88s.07.02.08.07.02.16.02.34v1.39Z"/>
    <path class="cls-2" d="M14.99,19.91c.07.75.11,1.13.18,1.88,0,.06,0,.11,0,.16,0,.13-.06.19-.18.19-.08,0-.14-.02-.17-.06-.04-.04-.08-.15-.12-.33-.05-.21-.13-.45-.24-.74-.11-.29-.2-.43-.29-.43-.03,0-.06.03-.09.09-.03.06-.04.14-.04.22,0,.23.16.89.48,1.96.27.93.46,1.67.56,2.21.1.53.15,1.13.15,1.8,0,.71-.07,1.26-.22,1.66-.15.39-.32.59-.52.59-.13,0-.26-.09-.4-.28-.08-.1-.13-.16-.15-.16-.03,0-.05.05-.05.16,0,.12-.02.2-.04.23-.02.03-.07.05-.17.05-.07,0-.12-.02-.14-.07-.02-.04-.04-.13-.05-.24-.07-.76-.1-1.14-.16-1.9,0-.09,0-.15,0-.17,0-.13.07-.19.22-.19.08,0,.13.02.16.06.03.04.07.16.11.35.17.74.33,1.11.48,1.11.1,0,.15-.12.15-.37,0-.22-.04-.49-.11-.81-.07-.32-.22-.85-.43-1.58-.22-.78-.38-1.43-.48-1.95-.1-.52-.15-1.05-.15-1.58,0-.72.07-1.26.22-1.61.15-.35.33-.53.54-.53.11,0,.24.08.38.24.07.08.12.12.15.12.04,0,.05-.05.06-.14,0-.1.03-.16.05-.18.03-.02.08-.03.17-.03.05,0,.09.01.11.04.02.02.03.1.04.21Z"/>
    <path class="cls-2" d="M17.19,22.45v-1.31c0-.36-.07-.54-.21-.54-.19,0-.29.27-.29.82,0,.31-.02.53-.05.66-.03.13-.11.24-.23.34-.12.09-.25.14-.38.14-.28,0-.41-.31-.41-.92,0-.58.12-1.05.36-1.42.24-.37.55-.55.94-.55.25,0,.48.07.69.22.2.15.37.39.49.73.12.34.18.72.18,1.13v6.19s.04.1.1.2c.04.07.07.17.07.3,0,.18-.01.31-.04.38-.02.08-.08.14-.17.21-.09.06-.21.09-.35.09-.17,0-.31-.06-.42-.19-.11-.13-.2-.38-.26-.76-.19.41-.34.67-.46.78-.12.11-.24.17-.36.17-.28,0-.49-.23-.64-.67-.15-.45-.23-1.19-.23-2.21s.07-1.73.21-2.13c.14-.4.42-.77.83-1.1.26-.21.48-.4.65-.57ZM17.19,23.33c-.25.23-.39.48-.44.76s-.07.92-.07,1.91c0,.73.02,1.19.06,1.38.04.19.11.29.2.29.17,0,.25-.29.25-.87v-3.47Z"/>
    <path class="cls-2" d="M21.54,20.71c.31-.71.6-1.06.88-1.06.12,0,.23.05.34.16.11.1.2.3.26.57.07.28.1.58.1.91v6.43c0,.12.02.23.07.35.05.13.08.25.08.38v.32c0,.16-.04.24-.11.24h-.93c-.13-.21-.2-.54-.2-.99v-6.4c0-.31-.07-.47-.22-.47-.09,0-.16.05-.21.15-.05.1-.07.22-.07.36v6.13c0,.13.03.24.1.35.04.07.06.14.06.21v.41c0,.16-.04.24-.11.24h-.95c-.12-.24-.18-.57-.18-.99v-6.4c0-.3-.06-.45-.18-.45-.05,0-.13.07-.25.2-.01.01-.03.03-.05.05v6.37c0,.12.03.24.1.35.04.07.07.15.07.26v.37c0,.16-.04.24-.12.24h-1.23c-.06,0-.09-.05-.09-.16v-.45c0-.07.03-.17.09-.29.06-.13.09-.24.09-.31v-6.85c0-.18-.04-.31-.11-.37-.05-.04-.07-.13-.07-.27v-.35c0-.15.04-.22.13-.22h1.02c.08,0,.11.07.11.22v.69c.29-.67.58-1,.87-1s.52.35.69,1.06Z"/>
    <path class="cls-2" d="M23.57,18.62v-.34c0-.15.05-.22.14-.22h1.01c.05,0,.09,0,.11.03.02.02.03.1.03.23v9.49c0,.21.04.34.1.39.05.04.07.11.07.23v.39c0,.14-.05.21-.15.21h-1.2c-.07,0-.1-.07-.1-.21v-.39c0-.16.03-.28.1-.35.04-.05.07-.09.08-.13.01-.04.02-.11.02-.22v-8.41c0-.16-.03-.26-.09-.32-.07-.07-.11-.2-.11-.37Z"/>
    <path class="cls-2" d="M25.31,20.42v-.45c0-.15.04-.23.13-.23h1.04c.07,0,.11.08.11.23v7.81c0,.11,0,.18.01.21,0,.03.03.06.06.09.08.06.12.2.12.42,0,.25,0,.4-.02.45-.01.05-.05.08-.1.08h-1.26s-.05-.04-.06-.08c0-.05-.01-.17-.01-.38,0-.24.03-.39.08-.43.07-.05.1-.14.1-.27v-6.77c0-.26-.05-.42-.14-.48-.04-.02-.06-.09-.06-.2ZM26.23,17.82c.25,0,.37.17.37.52,0,.27-.08.5-.25.69-.16.19-.35.28-.56.28-.27,0-.4-.19-.4-.56,0-.3.09-.53.28-.69.19-.16.37-.24.56-.24Z"/>
    <path class="cls-2" d="M28.3,20.67c.26-.68.55-1.02.89-1.02.23,0,.4.15.52.46s.18.69.18,1.15v6.5c0,.15.03.26.08.33.05.06.08.23.08.49,0,.21,0,.33-.03.37-.02.04-.05.06-.1.06h-.92c-.13-.23-.2-.53-.2-.9v-6.46c0-.35-.07-.53-.21-.53-.09,0-.19.1-.3.3v6.34c0,.16.04.29.11.38.05.06.07.16.07.3v.35c0,.15-.05.23-.16.23h-1.16c-.06,0-.09-.02-.11-.05-.01-.03-.02-.12-.02-.25v-.25c0-.13.02-.22.06-.28.05-.08.09-.15.1-.22.01-.07.02-.22.02-.45v-6.64c0-.16-.04-.27-.11-.35-.04-.04-.06-.11-.06-.22v-.36c0-.14.03-.21.09-.21h1.06s.07.01.08.04c.01.03.02.08.02.17v.71Z"/>
    <path class="cls-2" d="M32.18,19.75c.07-.15.11-.27.11-.35,0-.12-.04-.24-.13-.34-.12-.14-.18-.32-.18-.53,0-.42.14-.63.42-.63.17,0,.29.07.37.22s.12.32.12.53c0,.4-.14.87-.42,1.41.48.71.72,1.68.72,2.91,0,1.05-.14,1.89-.42,2.51-.28.62-.6.92-.96.92-.11,0-.24-.04-.37-.12-.07-.04-.13-.05-.17-.05-.07,0-.14.05-.22.16-.08.11-.12.23-.12.35,0,.22.12.33.36.33h.89c.32,0,.58.14.78.41.2.27.3.71.3,1.31,0,1.28-.52,1.92-1.57,1.92-.4,0-.73-.08-.97-.25-.24-.17-.37-.43-.37-.79,0-.19.03-.35.08-.46.05-.11.14-.23.26-.36.02-.02.04-.05.08-.08-.3-.27-.45-.72-.45-1.35,0-.71.21-1.24.64-1.6-.4-.66-.6-1.56-.6-2.69,0-1.01.14-1.84.41-2.5.27-.65.6-.98.99-.98.11,0,.25.04.41.11ZM31.21,28.99c-.14.12-.21.26-.21.43s.05.3.15.39c.1.08.31.13.63.13.55,0,.82-.2.82-.6,0-.23-.09-.34-.28-.34h-.9c-.07,0-.14,0-.21-.01ZM32.02,21.46c0-.59-.08-.88-.24-.88-.08,0-.14.09-.19.28-.05.19-.07.39-.07.6v3.37c0,.19.02.34.07.47.04.12.1.19.17.19.07,0,.13-.07.18-.2.05-.13.07-.31.07-.51v-3.31Z"/>
    <path class="cls-2" d="M35.23,19.91c.07.75.11,1.13.18,1.88,0,.06,0,.11,0,.16,0,.13-.06.19-.18.19-.08,0-.14-.02-.17-.06-.04-.04-.08-.15-.12-.33-.05-.21-.13-.45-.24-.74-.11-.29-.2-.43-.29-.43-.03,0-.06.03-.09.09-.03.06-.04.14-.04.22,0,.23.16.89.48,1.96.27.93.46,1.67.56,2.21.1.53.15,1.13.15,1.8,0,.71-.07,1.26-.22,1.66-.15.39-.32.59-.52.59-.13,0-.26-.09-.4-.28-.08-.1-.13-.16-.15-.16-.03,0-.05.05-.05.16,0,.12-.02.2-.04.23-.02.03-.07.05-.17.05-.07,0-.12-.02-.14-.07-.02-.04-.04-.13-.05-.24-.07-.76-.1-1.14-.16-1.9,0-.09,0-.15,0-.17,0-.13.07-.19.22-.19.08,0,.13.02.16.06.03.04.07.16.11.35.17.74.33,1.11.48,1.11.1,0,.15-.12.15-.37,0-.22-.04-.49-.11-.81-.07-.32-.22-.85-.43-1.58-.22-.78-.38-1.43-.48-1.95-.1-.52-.15-1.05-.15-1.58,0-.72.07-1.26.22-1.61.15-.35.33-.53.54-.53.11,0,.24.08.38.24.07.08.12.12.15.12.04,0,.05-.05.06-.14,0-.1.03-.16.05-.18.03-.02.08-.03.17-.03.05,0,.09.01.11.04.02.02.03.1.04.21Z"/>
    <path class="cls-2" d="M37.02,20.62c.33-.64.62-.96.88-.96.19,0,.35.15.49.43.14.29.21.67.21,1.15v6.48c0,.17.02.29.07.36.07.1.1.25.1.45,0,.22,0,.36-.02.41-.01.06-.05.09-.1.09h-.83c-.07,0-.14-.11-.2-.33-.06-.22-.09-.47-.09-.77v-6.32c0-.12-.02-.23-.06-.32-.04-.1-.08-.15-.13-.15-.08,0-.18.1-.3.31v6.27c0,.15.03.28.09.4.06.12.09.23.09.31,0,.31,0,.49-.01.53,0,.04-.05.07-.13.07h-1.18c-.05,0-.08-.02-.1-.07-.02-.04-.03-.14-.03-.3,0-.19,0-.32.01-.37.01-.05.04-.11.08-.18.06-.09.09-.23.09-.39v-8.33c0-.3-.05-.47-.14-.51-.05-.02-.08-.08-.08-.18v-.48c0-.09.03-.14.08-.14h1.1c.08,0,.12.08.12.24v2.31Z"/>
    <path class="cls-2" d="M39.18,20.79s-.05-.05-.07-.06c-.05-.05-.09-.1-.1-.15-.01-.05-.02-.15-.02-.3,0-.08,0-.15,0-.2,0-.13,0-.23.03-.27.02-.04.06-.07.12-.07h1.01c.05,0,.08.02.09.05.01.03.02.11.02.23v6.69c0,.58.08.87.23.87.12,0,.21-.1.27-.31v-6.28c0-.16-.04-.29-.11-.38-.04-.05-.06-.09-.07-.15,0-.05-.01-.23-.01-.53,0-.13.04-.2.11-.2h1.07s.07.01.08.04c.01.03.01.1.01.22v7.78c0,.15.03.25.09.31.07.08.11.22.11.41,0,.27,0,.43-.01.46-.01.04-.04.05-.1.05h-.99c-.06,0-.11-.02-.13-.07-.02-.05-.04-.15-.04-.31v-.17c0-.18,0-.28,0-.31-.35.63-.64.95-.88.95-.21,0-.37-.14-.5-.43-.13-.29-.2-.84-.2-1.65v-6.25Z"/>
    <path class="cls-2" d="M44,19.91c.07.75.11,1.13.18,1.88,0,.06,0,.11,0,.16,0,.13-.06.19-.18.19-.08,0-.14-.02-.17-.06-.04-.04-.08-.15-.12-.33-.05-.21-.13-.45-.24-.74-.11-.29-.2-.43-.29-.43-.03,0-.06.03-.09.09-.03.06-.04.14-.04.22,0,.23.16.89.48,1.96.27.93.46,1.67.56,2.21.1.53.15,1.13.15,1.8,0,.71-.07,1.26-.22,1.66-.15.39-.32.59-.52.59-.13,0-.26-.09-.4-.28-.08-.1-.13-.16-.15-.16-.03,0-.05.05-.05.16,0,.12-.02.2-.04.23-.02.03-.07.05-.17.05-.07,0-.12-.02-.14-.07-.02-.04-.04-.13-.05-.24-.07-.76-.1-1.14-.16-1.9,0-.09,0-.15,0-.17,0-.13.07-.19.22-.19.08,0,.13.02.16.06.03.04.07.16.11.35.17.74.33,1.11.48,1.11.1,0,.15-.12.15-.37,0-.22-.04-.49-.11-.81-.07-.32-.22-.85-.43-1.58-.22-.78-.38-1.43-.48-1.95-.1-.52-.15-1.05-.15-1.58,0-.72.07-1.26.22-1.61.15-.35.33-.53.54-.53.11,0,.24.08.38.24.07.08.12.12.15.12.04,0,.05-.05.06-.14,0-.1.03-.16.05-.18.03-.02.08-.03.17-.03.05,0,.09.01.11.04.02.02.03.1.04.21Z"/>
  </g>
</svg>