<?xml version="1.0" encoding="UTF-8"?>
<svg id="Layer_1" data-name="Layer 1" xmlns="http://www.w3.org/2000/svg" viewBox="0 0 595.28 841.89">
  <defs>
    <style>
      .cls-1 {
        fill: #231f20;
      }

      .cls-2 {
        fill: #ed1c24;
      }

      .cls-3 {
        fill: #fff9b4;
      }

      .cls-4 {
        fill: none;
        stroke: #fd0;
        stroke-miterlimit: 10;
        stroke-width: 2px;
      }
    </style>
  </defs>
  <rect class="cls-3" width="595.28" height="841.89"/>
  <g>
    <path class="cls-4" d="M174.44,385.14v123.52"/>
    <line class="cls-4" x1="156.8" y1="398.67" x2="245.95" y2="327.16"/>
    <path class="cls-4" d="M244.78,327.48c64.07,25.41,128.14,50.83,192.21,76.24l-192.21-76.24Z"/>
    <path class="cls-4" d="M420.42,396.96c-.1,37.21-.21,74.42-.31,111.63"/>
    <g>
      <path class="cls-1" d="M220.34,432.56c-3.95,0-5.93,0-9.88-.02-.37-13.92-5.29-37.34,3.61-48.86-11.25,8.68-9.25,36.3-10.63,48.85-3.95,0-5.93,0-9.88-.02-1.7-14.18-10.32-41.73.47-52.84-11.64,14.23-7.69,34.72-7.96,52.82-3.98,0-5.96-.01-9.94-.02.17-11.86-.57-24.61.52-36.44,1.36-14.77,4.27-14.58,15.82-24.03,17.52-14.33,35.32-28.32,52.94-42.52,2.52,1.02,3.78,1.53,6.31,2.55-17.48,17.46-34.59,35.26-51.59,53.19,21.26-15.91,42.3-32.07,63.12-48.54,2.52,1.02,3.78,1.53,6.31,2.55-12.64,12.64-26,24.93-38.09,38.11-15.48,16.88-11.72,32.95-11.13,55.21Z"/>
      <path class="cls-1" d="M239.64,432.6c-2.22,0-4.29-1.21-6.22-3.38-1.82-2.05-3.7-5.22-5.26-9.49-1.59-4.37-2.77-9.41-3.65-14.9-.85-5.29-4.1-12.52.4-16.86,16.26-15.55,32.14-31.45,48.06-47.35,2.45.99,3.68,1.48,6.13,2.47-14.61,15.46-29.18,30.91-44.27,45.9-3.21,3.19-1.17,8.03.14,11.65,1.23,3.4,2.76,5.15,4.59,5.29.86.06,1.67-.35,2.45-1.23.77-.88,1.45-2.08,2.03-3.58.58-1.51,1.03-3.29,1.32-5.32.31-2.22,1.04-4.16,2.47-5.66,13.56-14.21,26.35-29,39.21-43.85,2.45.99,3.68,1.48,6.13,2.47-11.54,14.42-23.01,28.75-35.47,42.41-3.42,3.8-2.27,9.94-3.11,15.26-.84,5.33-2.04,9.83-3.38,13.34-1.46,3.82-3.16,6.88-5.1,9.11-1.95,2.25-4.07,3.5-6.29,3.71-.07,0-.1,0-.17,0Z"/>
      <path class="cls-1" d="M273.44,434.77c-1.37,0-2.81-.42-4.04-1.32-1.31-.96-2.62-2.55-3.88-4.43-2.08-3.46-3.76-8.03-4.98-13.64-1.21-5.6-1.81-11.71-1.85-18.19,3.96.41,5.93.63,9.89,1.06.01,2.91.3,5.18.79,6.76.52,1.67.97,2.84,1.36,3.44.71,1.21,1.48,1.89,2.29,2.05.74.14,1.54-.17,2.39-.96.54-.53,1.03-1.22,1.34-2.03.37-.97.59-1.86.75-2.49.14-.54.21-1.34.28-2.24.02-.27.05-.89.05-1.83,0-.94-.04-1.57-.07-1.85-.1-1.08-.17-1.97-.3-2.44-.18-.64.05-1.34.31-2.14.12-.51.14-1.17-.07-1.7-.2-.53-.48-.93-.56-1.09-.31-.45-.46-.67-.77-1.12-.62-.91-1.08-1.66-1.38-2.24-.43-.82-.64-1.89-.62-3.2.09-1.92.72-3.99,1.79-6.19,1.17-2.4,1.66-4.26,3.01-6.52,1.53-2.56,3.23-4.88,4.93-6.94,1.87-2.27,3.92-4.44,6.05-6.42,1.96-1.81,3.88-3.31,5.6-4.49,1.69-1.15,3.28-2.08,4.71-2.55,1.4-.46,2.61-.57,3.54-.37,1.07.22,1.84.9,2.37,1.72.56.87.98,2,1.11,3.26.14,1.35.13,2.87-.13,4.48-.27,1.66-.72,3.44-1.37,5.3-.67,1.92-1.52,3.81-2.56,5.68-3.17-.71-4.75-1.07-7.92-1.79.8-1.25,1.15-2.18,1.04-2.76-.12-.59-.31-1.03-.52-1.28-.02,0-.03,0-.04-.01-.03,0-.04-.04-.04-.1-.01-.04-.02-.06-.03-.11l-.18-.05c-.16-.17-.42-.24-.75-.2-.63.16-1.06.28-1.29.35-.52.26-1.12.7-1.75,1.32-.9.88-1.58,1.81-2.04,2.72-.52,1.03-.78,1.93-.64,2.54.12.51.4,1.02.75,1.46.15.28.51.75,1.1,1.4.07.07.15.17.27.28.12.11.27.26.45.44.18.18.34.35.48.49.03.07.18.26.43.57.26.31.48.6.66.87,1.29,2.05,1.19,5.07-.44,9.09-1.66,4.09-5.21,8.08-5.18,14.59.03,6.42-.66,12.23-2.09,17.49-1.4,5.18-3.43,9.22-6.03,12.1-1.01,1.11-2.08,2.07-3.09,2.52-1.16.52-2.34.7-3.15.7Z"/>
      <path class="cls-1" d="M314.84,357.53c2.45.99,3.68,1.48,6.13,2.47-4.02,9.64-8.32,18.83-12.98,28.03-8,15.82-7.33,27.09-7.26,44.98-3.95-.04-5.93-.06-9.88-.09-.08-18.49-1.15-30.12,7.87-46.19,5.42-9.66,11-19.26,16.11-29.2Z"/>
      <path class="cls-1" d="M324.41,433.11c-2.77-.03-5.47-1.21-8.08-3.47-2.49-2.15-4.98-5.62-7.17-10.44-2.06-4.53-3.56-9.96-4.69-15.92-1.05-5.55,2.21-9.98,5.73-15.05,3.51-5.07,5.05-8.19,7.09-11.11,2.06-2.95,4.25-5.48,6.5-7.48,2.33-2.08,4.45-3.38,6.44-3.96,1.97-.58,3.74-.49,5.47.21,1.69.68,3.28,1.94,4.95,3.7,1.65,1.74,3.25,3.94,4.92,6.54-1.78,2.24-2.81,3.42-5.18,5.9-.9-1.39-1.88-2.6-2.95-3.45-1.12-.89-2.26-1.47-3.31-1.73-1.05-.26-2.25-.26-3.52.1-1.24.35-2.5,1.14-3.75,2.26-1.12,1-2.23,2.35-3.29,4.03-.97,1.54-2.42,3.72-4.09,6.32-1.67,2.6-2.97,5.08-3.84,7.42-.97,2.6-.53,5.25.49,7.54,1.14,2.55,2.5,4.46,3.88,5.74,1.41,1.3,2.85,2.09,4.34,2.21,1.44.12,2.91-.41,4.38-1.46,1.41-1,2.72-2.6,3.84-4.78,2.81,6,4.21,8.93,7.01,14.65-2.09,4.06-4.49,7.12-7.04,9.14-2.6,2.04-5.31,3.16-8.12,3.13Z"/>
      <path class="cls-1" d="M353.29,374.48c1.42-.43,2.96-.22,4.72.49,1.76.71,3.72,1.92,6.08,3.53,2.29,1.56,4.71,3.35,7.32,5.33,2.63,1.99,5.38,4.09,8.14,6.33,2.86,2.31,5.85,4.28,4.77,8.56-1.07,4.29-2.94,8.29-4.07,12.79-1.03,4.12-2.58,7.86-4.6,11.25-1.94,3.26-4.23,5.92-6.83,7.81-2.67,1.95-5.51,2.92-8.35,2.89-2.85-.03-5.66-1.09-8.37-3.3-2.5-2.03-4.77-5.08-6.81-9.13-2.04-4.05-3.61-8.63-4.66-13.66-1.16-5.5,1.09-9.82,3.39-14.39,2.3-4.57,2.3-7.16,2.99-9.7.65-2.44,1.58-4.44,2.65-5.94,1.05-1.48,2.25-2.45,3.62-2.87ZM355.92,413.21c1.29,1.19,2.79,1.97,4.51,2.11,1.72.14,3.23-.39,4.5-1.31,1.31-.95,2.63-2.28,3.68-4.04,1.05-1.76,2.11-3.74,3.38-5.8,1.26-2.05,2.25-4.33,3.01-6.78.76-2.44.54-4.35-.77-5.6-1.33-1.26-2.74-2.43-4.16-3.51-1.42-1.08-2.83-2.03-4.22-2.82-1.36-.78-2.66-1.33-3.89-1.63-1.23-.31-2.3-.34-3.19-.05-.89.29-1.63.87-2.21,1.69-.58.81-.94,1.9-1.15,3.11-.2,1.11-.92,3.02-2.13,5.73-1.22,2.72-1.95,5.18-2.27,7.24-.35,2.25.15,4.6,1.21,6.7,1.06,2.1,2.38,3.75,3.7,4.97Z"/>
      <path class="cls-1" d="M419.53,434.42c-4.28-.06-6.42-.09-10.7-.15-4.7-12.63-8.3-25.53-12.84-38.2-.4,12.73-1.21,25.24-1.19,38-3.95-.06-5.93-.08-9.88-.14-.02-10.25,3.52-24.69,1.39-34.15-2.13-9.45-4.76-10.55-13.01-18.55,2.68,1.07,4.02,1.61,6.7,2.68,9.68,6.19,29.48,10.2,29.9,23.87,2.19-12.49-13.16-16.15-21.34-20.45,2.45.99,3.68,1.48,6.13,2.47,10.21,4.3,19.64,5.68,23.95,14.65,3.74,7.79.88,21.25.88,29.97Z"/>
    </g>
    <g>
      <path class="cls-2" d="M184.19,468.63v25.76c0,1.33.39,2.23,1.18,2.72.39.23.64.49.74.78.1.3.15.96.15,1.98,0,1.58-.06,2.52-.17,2.8-.11.28-.4.42-.85.42h-9.31c-.52,0-.85-.22-1.01-.66-.16-.44-.23-1.34-.23-2.69,0-.91.04-1.48.11-1.72.07-.24.3-.53.66-.87.5-.45.81-.84.94-1.17.12-.32.18-.81.18-1.46v-51.27c0-.74-.07-1.3-.21-1.7-.14-.4-.46-.81-.93-1.23-.34-.31-.51-1.01-.51-2.08,0-.11-.02-.77.02-1.87.05-1.16.41-1.78.98-1.78h12.72c.38,0,.65.13.79.38.15.25.26.87.35,1.87.01.17.03.41.06.72.37,3.77.55,5.65.92,9.42.05.59.08,1.1.08,1.53,0,.9-.33,1.36-.98,1.36-.87,0-1.41-.34-1.63-1.02-.22-.68-.56-2.37-1.02-5.05-.28-1.64-.57-2.75-.85-3.31-.28-.57-.71-.85-1.29-.85-.16,0-.46.04-.9.13v24.23h1.04c.54,0,.92-.26,1.13-.79.21-.52.36-1.43.46-2.69.11-1.44.24-2.37.35-2.78.11-.41.56-.61,1.35-.61.54,0,.87.11.99.34.11.22.17.66.17,1.32v15.36c0,.65-.05,1.08-.16,1.27-.11.2-.46.3-1.04.3-.71,0-1.15-.24-1.33-.72-.18-.48-.32-1.66-.42-3.52-.1-1.89-.6-2.84-1.49-2.84h-1.04Z"/>
      <path class="cls-2" d="M201.36,444.52c2.55,0,4.69,2.38,6.4,7.15,1.71,4.77,2.57,11.85,2.57,21.24,0,10.13-.87,17.79-2.61,22.98-1.74,5.19-3.91,7.79-6.5,7.79-1.79,0-3.35-1.19-4.67-3.57-1.32-2.38-2.33-5.55-3.05-9.51-.71-3.96-1.07-9.38-1.07-16.26,0-9.82.82-17.25,2.46-22.28,1.64-5.04,3.79-7.55,6.47-7.55ZM202.82,455.18c0-3.51-.49-5.26-1.47-5.26-1.06,0-1.59,2.15-1.59,6.45v35.27c0,4.27.48,6.41,1.45,6.41,1.07,0,1.61-2.14,1.61-6.41v-36.46Z"/>
      <path class="cls-2" d="M219.54,456.41c.16-.68.36-1.87.59-3.57.52-3.68,1.02-5.98,1.52-6.92s1.04-1.4,1.64-1.4c.82,0,1.43.81,1.84,2.42s.62,3.63.62,6.07c0,5.23-.71,7.85-2.12,7.85-.71,0-1.25-.87-1.63-2.59-.23-.99-.47-1.49-.71-1.49-.61,0-.92,1.4-.92,4.2v33.91c0,1.07.24,1.88.71,2.38.46.48.71,1.26.71,2.33v1.91c0,.68-.04,1.11-.11,1.29-.07.19-.29.28-.64.28h-7.68c-.53,0-.79-.53-.79-1.57v-2.33c0-.79.12-1.32.35-1.57.46-.48.69-1.22.69-2.21v-42.74c0-.96-.16-1.67-.49-2.08-.34-.42-.56-.76-.61-1-.05-.24-.08-.97-.08-2.18,0-1.02.07-1.66.21-1.91.14-.25.38-.38.72-.38h5.5c.26,0,.44.15.53.44.09.3.14,1.01.14,2.14v8.7Z"/>
      <path class="cls-2" d="M237.8,446.09c.45,4.7.67,7.05,1.12,11.76.03.37.04.69.04.98,0,.79-.37,1.19-1.1,1.19-.49,0-.85-.13-1.07-.38s-.48-.94-.76-2.04c-.33-1.3-.82-2.84-1.49-4.63-.67-1.78-1.26-2.67-1.79-2.67-.2,0-.38.2-.54.59-.16.39-.23.86-.23,1.4,0,1.44,1,5.53,2.98,12.26,1.72,5.85,2.87,10.45,3.49,13.78.61,3.34.92,7.09.92,11.28,0,4.44-.46,7.9-1.39,10.37-.92,2.47-2.01,3.71-3.26,3.71-.79,0-1.62-.59-2.49-1.78-.48-.65-.79-.98-.96-.98-.19,0-.29.33-.33.98-.04.75-.14,1.25-.24,1.46-.11.21-.46.32-1.06.32-.46,0-.76-.14-.9-.42-.14-.28-.23-.78-.29-1.49-.41-4.74-.61-7.1-1.02-11.84-.04-.57-.06-.92-.06-1.06,0-.79.46-1.19,1.37-1.19.48,0,.81.13.99.38.18.25.42.99.7,2.21,1.06,4.61,2.07,6.92,3.02,6.92.61,0,.92-.76.92-2.29,0-1.35-.23-3.04-.68-5.04-.46-2.01-1.35-5.31-2.66-9.88-1.39-4.85-2.39-8.93-3.01-12.21-.62-3.28-.93-6.57-.93-9.88,0-4.5.46-7.85,1.39-10.05.92-2.2,2.05-3.31,3.36-3.31.69,0,1.48.49,2.36,1.49.45.51.75.76.92.76.22,0,.34-.3.39-.89.05-.62.16-1.01.33-1.15.16-.14.51-.21,1.04-.21.34,0,.56.08.66.23.1.16.19.6.28,1.34Z"/>
      <path class="cls-2" d="M251.54,461.97v-8.19c0-2.27-.44-3.4-1.32-3.4-1.21,0-1.81,1.71-1.81,5.14,0,1.92-.11,3.29-.32,4.12-.21.82-.69,1.52-1.43,2.1-.74.58-1.53.87-2.37.87-1.73,0-2.59-1.93-2.59-5.77,0-3.62.75-6.58,2.25-8.87s3.46-3.44,5.88-3.44c1.59,0,3.02.45,4.29,1.36,1.27.9,2.29,2.43,3.05,4.58.76,2.15,1.14,4.51,1.14,7.08v38.72c.03.2.23.62.61,1.27.27.42.41,1.04.41,1.87,0,1.13-.07,1.93-.22,2.4-.15.47-.51.9-1.09,1.3-.58.4-1.3.59-2.17.59-1.06,0-1.94-.4-2.65-1.21-.71-.81-1.26-2.38-1.65-4.73-1.18,2.55-2.14,4.17-2.87,4.88-.73.71-1.49,1.06-2.26,1.06-1.72,0-3.06-1.41-4-4.22-.95-2.81-1.42-7.42-1.42-13.8,0-6.39.44-10.82,1.33-13.29.88-2.47,2.61-4.78,5.18-6.85,1.62-1.3,2.98-2.49,4.06-3.56ZM251.54,467.49c-1.54,1.41-2.45,3-2.75,4.77-.3,1.77-.45,5.74-.45,11.93,0,4.55.12,7.42.37,8.62.24,1.2.67,1.8,1.26,1.8,1.05,0,1.57-1.81,1.57-5.43v-21.7Z"/>
      <path class="cls-2" d="M278.71,451.15c1.94-4.41,3.77-6.62,5.48-6.62.75,0,1.46.32,2.13.98.67.65,1.22,1.84,1.64,3.58.42,1.74.63,3.64.63,5.71v40.19c0,.73.15,1.46.45,2.16.34.79.51,1.58.51,2.38v2.04c0,1.02-.22,1.53-.67,1.53h-5.81c-.82-1.33-1.22-3.4-1.22-6.2v-39.98c0-1.95-.46-2.93-1.37-2.93-.57,0-1.01.3-1.31.91-.31.61-.46,1.36-.46,2.27v38.33c0,.79.2,1.53.61,2.21.24.42.37.86.37,1.32v2.55c0,1.02-.23,1.53-.69,1.53h-5.93c-.75-1.53-1.12-3.59-1.12-6.2v-39.98c0-1.87-.37-2.8-1.1-2.8-.3,0-.82.41-1.55,1.23-.07.08-.17.2-.31.34v39.81c0,.76.21,1.49.63,2.16.27.42.41.96.41,1.61v2.29c0,1.02-.24,1.53-.73,1.53h-7.66c-.37,0-.55-.34-.55-1.02v-2.8c0-.42.18-1.04.55-1.83.39-.82.59-1.47.59-1.95v-42.83c0-1.13-.24-1.91-.71-2.33-.29-.26-.43-.81-.43-1.67v-2.18c0-.91.27-1.37.79-1.37h6.4c.48,0,.71.45.71,1.36v4.29c1.79-4.16,3.6-6.24,5.42-6.24s3.27,2.21,4.3,6.62Z"/>
      <path class="cls-2" d="M291.41,438.07v-2.12c0-.91.29-1.36.86-1.36h6.3c.34,0,.56.06.67.17.11.11.16.59.16,1.44v59.29c0,1.3.21,2.11.61,2.42.28.22.43.71.43,1.44v2.42c0,.87-.31,1.32-.92,1.32h-7.48c-.42,0-.63-.44-.63-1.32v-2.42c0-.99.21-1.73.63-2.21.27-.28.44-.55.51-.79.07-.24.1-.7.1-1.38v-52.59c0-.99-.2-1.65-.55-1.99-.46-.45-.69-1.26-.69-2.33Z"/>
      <path class="cls-2" d="M302.32,449.32v-2.8c0-.93.27-1.4.82-1.4h6.5c.46,0,.69.47.69,1.4v48.81c0,.68.02,1.12.06,1.32.04.2.16.38.36.55.48.4.72,1.27.72,2.63,0,1.55-.03,2.49-.1,2.8-.07.31-.28.47-.65.47h-7.89c-.19-.06-.31-.24-.37-.53-.05-.3-.08-1.08-.08-2.35,0-1.53.18-2.42.53-2.67.44-.31.65-.88.65-1.7v-42.32c0-1.64-.29-2.63-.88-2.97-.24-.14-.37-.55-.37-1.23ZM308.02,433.07c1.54,0,2.3,1.07,2.3,3.23,0,1.7-.51,3.13-1.54,4.31-1.03,1.17-2.19,1.76-3.5,1.76-1.68,0-2.53-1.18-2.53-3.52,0-1.87.59-3.3,1.77-4.29,1.18-.99,2.34-1.49,3.49-1.49Z"/>
      <path class="cls-2" d="M321.01,450.89c1.62-4.24,3.47-6.37,5.54-6.37,1.42,0,2.51.95,3.26,2.86.75,1.91,1.13,4.31,1.13,7.2v40.66c0,.9.17,1.62.51,2.08.29.39.47,1.41.47,3.06,0,1.3-.05,2.08-.15,2.33-.1.25-.32.38-.64.38h-5.73c-.82-1.44-1.22-3.33-1.22-5.64v-40.36c0-2.21-.44-3.31-1.3-3.31-.57,0-1.19.62-1.85,1.87v39.6c0,1.02.24,1.81.71,2.38.29.34.43.96.43,1.87v2.16c0,.96-.33,1.44-1,1.44h-7.24c-.35,0-.58-.11-.67-.32-.09-.21-.14-.74-.14-1.59v-1.57c0-.82.13-1.4.37-1.74.33-.47.54-.93.63-1.36.09-.42.14-1.36.14-2.8v-41.51c0-.99-.23-1.71-.69-2.16-.26-.25-.39-.71-.39-1.36v-2.25c0-.88.19-1.32.57-1.32h6.65c.29,0,.46.08.53.25.07.17.1.52.1,1.06v4.46Z"/>
      <path class="cls-2" d="M345.24,445.12c.45-.93.67-1.67.67-2.21,0-.76-.28-1.47-.82-2.12-.74-.89-1.1-2.01-1.1-3.31,0-2.63.87-3.95,2.61-3.95,1.06,0,1.83.45,2.32,1.36.49.9.73,2.01.73,3.31,0,2.49-.88,5.42-2.65,8.79,3,4.44,4.5,10.51,4.5,18.21,0,6.59-.87,11.81-2.6,15.66-1.73,3.84-3.74,5.77-6,5.78-.71,0-1.48-.24-2.32-.72-.46-.23-.81-.34-1.04-.34-.44,0-.89.34-1.38,1.02-.48.68-.72,1.41-.72,2.21,0,1.38.74,2.08,2.22,2.08h5.56c1.98,0,3.61.85,4.87,2.55,1.26,1.7,1.9,4.43,1.9,8.19,0,7.98-3.26,11.97-9.78,11.97-2.51,0-4.54-.53-6.06-1.57-1.53-1.05-2.29-2.7-2.29-4.97,0-1.22.16-2.17.47-2.87.31-.69.86-1.45,1.65-2.27.11-.11.27-.28.49-.51-1.86-1.7-2.79-4.52-2.79-8.45,0-4.44,1.33-7.77,4-9.97-2.51-4.13-3.77-9.74-3.77-16.81,0-6.31.85-11.51,2.56-15.6,1.7-4.09,3.77-6.13,6.21-6.13.69,0,1.55.23,2.57.68ZM339.15,502.88c-.88.73-1.32,1.64-1.32,2.72s.32,1.88.95,2.42c.63.54,1.94.81,3.92.81,3.42,0,5.14-1.25,5.14-3.73,0-1.42-.58-2.12-1.73-2.12h-5.65c-.45,0-.88-.03-1.3-.08ZM344.2,455.77c0-3.68-.49-5.52-1.47-5.52-.49,0-.88.59-1.16,1.76-.29,1.18-.43,2.43-.43,3.76v21.09c0,1.16.14,2.13.42,2.91.28.78.64,1.17,1.07,1.17.46,0,.84-.42,1.13-1.25.29-.83.44-1.9.44-3.2v-20.71Z"/>
      <path class="cls-2" d="M364.32,446.09c.45,4.7.67,7.05,1.12,11.76.03.37.04.69.04.98,0,.79-.37,1.19-1.1,1.19-.49,0-.85-.13-1.07-.38s-.48-.94-.76-2.04c-.33-1.3-.82-2.84-1.49-4.63s-1.26-2.67-1.79-2.67c-.2,0-.38.2-.54.59-.16.39-.23.86-.23,1.4,0,1.44,1,5.53,2.98,12.26,1.72,5.85,2.87,10.45,3.49,13.78.61,3.34.92,7.09.92,11.28,0,4.44-.46,7.9-1.39,10.37-.92,2.47-2.01,3.71-3.26,3.71-.79,0-1.62-.59-2.49-1.78-.48-.65-.79-.98-.96-.98-.19,0-.29.33-.33.98-.04.75-.14,1.25-.24,1.46-.11.21-.46.32-1.06.32-.46,0-.76-.14-.9-.42-.14-.28-.23-.78-.29-1.49-.41-4.74-.61-7.1-1.02-11.84-.04-.57-.06-.92-.06-1.06,0-.79.46-1.19,1.37-1.19.48,0,.81.13.99.38.18.25.42.99.7,2.21,1.06,4.61,2.07,6.92,3.02,6.92.61,0,.92-.76.92-2.29,0-1.35-.23-3.04-.68-5.04-.46-2.01-1.35-5.31-2.66-9.88-1.39-4.85-2.39-8.93-3.01-12.21-.62-3.28-.93-6.57-.93-9.88,0-4.5.46-7.85,1.39-10.05.92-2.2,2.05-3.31,3.36-3.31.69,0,1.48.49,2.36,1.49.45.51.75.76.92.76.22,0,.34-.3.39-.89.05-.62.16-1.01.33-1.15.16-.14.51-.21,1.04-.21.34,0,.56.08.66.23.1.16.19.6.28,1.34Z"/>
      <path class="cls-2" d="M375.51,450.55c2.08-4.02,3.91-6.03,5.48-6.03,1.17,0,2.19.91,3.06,2.72.87,1.81,1.3,4.2,1.3,7.17v40.49c0,1.04.14,1.8.43,2.25.41.65.61,1.58.61,2.8,0,1.36-.05,2.22-.14,2.59-.09.37-.31.55-.65.55h-5.2c-.45,0-.86-.68-1.24-2.04-.38-1.36-.57-2.97-.57-4.84v-39.52c0-.74-.12-1.41-.36-2.02-.24-.61-.52-.91-.85-.91-.52,0-1.14.65-1.88,1.95v39.18c0,.93.19,1.77.55,2.5.37.76.55,1.41.55,1.95,0,1.95-.03,3.06-.08,3.33-.05.27-.32.4-.79.4h-7.38c-.31,0-.52-.13-.63-.4-.11-.27-.16-.9-.16-1.89,0-1.22.03-1.99.09-2.31.06-.32.23-.7.5-1.12.39-.59.59-1.42.59-2.46v-52.08c0-1.9-.32-2.95-.88-3.18-.31-.13-.47-.53-.47-1.15v-3.01c0-.59.17-.89.51-.89h6.85c.5,0,.75.51.75,1.53v14.43Z"/>
      <path class="cls-2" d="M388.99,451.61c-.18-.17-.31-.3-.41-.38-.34-.31-.55-.62-.64-.91s-.13-.91-.13-1.84c0-.51-.01-.94-.02-1.27-.02-.83.06-1.41.17-1.68.11-.27.37-.4.76-.4h6.34c.31,0,.5.1.57.3.07.2.1.68.1,1.44v41.81c0,3.65.48,5.48,1.45,5.48.73,0,1.29-.65,1.67-1.95v-39.26c0-1.02-.24-1.81-.71-2.38-.23-.28-.37-.59-.42-.91-.05-.32-.07-1.42-.07-3.29,0-.82.23-1.23.69-1.23h6.66c.29,0,.46.08.52.25.06.17.09.62.09,1.36v48.64c0,.93.21,1.58.55,1.95.45.48.67,1.36.67,2.55,0,1.7-.03,2.66-.09,2.89-.06.23-.28.34-.64.34h-6.2c-.39,0-.67-.15-.82-.45s-.22-.94-.22-1.93v-1.06c0-1.13,0-1.77-.02-1.91-2.16,3.96-3.99,5.94-5.48,5.94-1.28,0-2.34-.89-3.15-2.67-.82-1.78-1.23-5.22-1.23-10.31v-39.09Z"/>
      <path class="cls-2" d="M419.13,446.09c.45,4.7.67,7.05,1.12,11.76.03.37.04.69.04.98,0,.79-.37,1.19-1.1,1.19-.49,0-.85-.13-1.07-.38-.22-.25-.48-.94-.76-2.04-.33-1.3-.82-2.84-1.49-4.63s-1.26-2.67-1.79-2.67c-.2,0-.38.2-.54.59-.16.39-.23.86-.23,1.4,0,1.44,1,5.53,2.98,12.26,1.72,5.85,2.87,10.45,3.49,13.78.61,3.34.92,7.09.92,11.28,0,4.44-.46,7.9-1.39,10.37-.92,2.47-2.01,3.71-3.26,3.71-.79,0-1.62-.59-2.49-1.78-.48-.65-.79-.98-.96-.98-.19,0-.29.33-.33.98-.04.75-.14,1.25-.24,1.46-.11.21-.46.32-1.06.32-.46,0-.76-.14-.9-.42-.14-.28-.23-.78-.29-1.49-.41-4.74-.61-7.1-1.02-11.84-.04-.57-.06-.92-.06-1.06,0-.79.46-1.19,1.37-1.19.48,0,.81.13.99.38.18.25.42.99.7,2.21,1.06,4.61,2.07,6.92,3.02,6.92.61,0,.92-.76.92-2.29,0-1.35-.23-3.04-.68-5.04-.46-2.01-1.35-5.31-2.66-9.88-1.39-4.85-2.39-8.93-3.01-12.21-.62-3.28-.93-6.57-.93-9.88,0-4.5.46-7.85,1.39-10.05.92-2.2,2.05-3.31,3.36-3.31.69,0,1.48.49,2.36,1.49.45.51.75.76.92.76.22,0,.34-.3.39-.89.05-.62.16-1.01.33-1.15.16-.14.51-.21,1.04-.21.34,0,.56.08.66.23.1.16.19.6.28,1.34Z"/>
    </g>
  </g>
</svg>